<?xml version="1.0" encoding="iso-8859-1"?>
<!-- Generator: Adobe Illustrator 16.0.0, SVG Export Plug-In . SVG Version: 6.00 Build 0)  -->
<!DOCTYPE svg PUBLIC "-//W3C//DTD SVG 1.1//EN" "http://www.w3.org/Graphics/SVG/1.1/DTD/svg11.dtd">
<svg version="1.1" id="&#x5716;&#x5C64;_1" xmlns="http://www.w3.org/2000/svg" xmlns:xlink="http://www.w3.org/1999/xlink" x="0px"
	 y="0px" width="260px" height="160px" viewBox="0 0 960 560" style="enable-background:new 0 0 960 560;" xml:space="preserve">
<g>
	<path style="fill-rule:evenodd;clip-rule:evenodd;" d="M271.867,111.697c-7.51,6.781-14.376,13.51-21.831,19.508
		c-4.198,3.377-9.106,6.264-14.157,8.107c-8.698,3.176-18.4-2.479-19.438-11.688c-0.825-7.311-0.096-14.877,0.652-22.258
		c0.696-6.865,2.33-13.633,3.549-20.443c-0.446-0.449-0.894-0.9-1.339-1.35c-18.051,9.883-36.102,19.766-54.152,29.648
		c7.069-8.656,16.763-13.318,26.178-18.35c9.07-4.848,18.332-9.342,27.313-14.342c1.708-0.951,3.118-3.393,3.604-5.404
		c1.524-6.295,2.25-12.785,3.821-19.066c2.454-9.805,6.374-18.967,14.062-25.967c2.097-1.908,4.342-4.348,8.274-1.518
		c-8.485,4.834-13.572,12.203-16.483,20.736c-2.814,8.246-4.416,16.906-6.549,25.383c0.551,0.48,1.102,0.959,1.652,1.439
		c5.762-3.182,11.522-6.363,17.283-9.545c0.188,0.158,0.377,0.316,0.564,0.475c-0.543,0.813-0.926,1.834-1.66,2.395
		c-2.244,1.713-4.418,3.814-6.987,4.756c-10.17,3.725-13.55,11.426-14.12,21.51c-0.375,6.615-1.925,13.156-2.682,19.762
		c-0.357,3.123-0.373,6.348-0.053,9.477c1.1,10.744,8.572,15.207,17.915,9.729c7.948-4.66,14.979-10.906,22.315-16.582
		c2.09-1.615,3.816-3.695,5.731-5.541c4.768-4.598,7.76-9.658,8.767-16.691c1.18-8.248,4.172-16.373,7.402-24.125
		c1.471-3.529,5.053-6.527,8.321-8.861c3.245-2.318,6.758-0.648,9.519,1.883c2.733,2.508,2.236,5.604,0.477,8.201
		c-6.342,9.359-12.344,19.041-19.59,27.666c-5.572,6.635-4.234,13.221-2.778,20.193c0.69,3.307,3.325,2.637,4.944,0.982
		c3.355-3.43,6.59-7.049,9.379-10.945c4.063-5.67,7.899-11.525,11.456-17.525c7.791-13.145,19.356-21.861,32.887-28.125
		c6.751-3.123,13.756-5.947,20.926-7.857c9.755-2.598,14.907,2.414,12.169,12.098c-2.151,7.605-5.889,14.779-9.098,22.066
		c-1.943,4.412-4.482,8.572-6.289,13.033c-2.594,6.402-1.245,9.648,5.51,10.064c12.754,0.787,25.629,1.188,38.365,0.371
		c33.041-2.115,66.035-4.986,99.049-7.539c4.25-0.328,8.832,0.119,11.594-5.514c0.631,1.434,2.121,3.23,1.703,4.221
		c-0.742,1.752-2.404,3.77-4.113,4.309c-2.787,0.881-5.924,0.914-8.906,0.873c-31.744-0.439-63.112,4.193-94.639,6.73
		c-12.91,1.041-25.944,0.611-38.922,0.686c-2.281,0.014-4.629-0.588-6.837-1.262c-6.604-2.016-9.359-6.621-6.786-12.986
		c3.111-7.689,7.325-14.924,10.725-22.506c2.234-4.984,4.217-10.143,5.681-15.4c1.404-5.039-0.511-7.182-5.688-6.092
		c-22.442,4.73-41.456,14.971-54.339,34.771c-5.08,7.807-10.314,15.516-15.602,23.184c-1.501,2.178-3.285,4.217-5.203,6.041
		c-4.651,4.426-9.367,3.223-11.352-2.949C273.099,118.57,272.671,115.406,271.867,111.697z M277.262,96.847
		c0.659,0.309,1.317,0.617,1.976,0.926c5.887-9.148,11.822-18.268,17.574-27.498c0.515-0.826,0.271-2.805-0.396-3.5
		c-0.736-0.768-2.509-1.146-3.582-0.836c-1.51,0.438-3.031,1.436-4.135,2.588C281.075,76.486,279.201,86.689,277.262,96.847z"/>
	<path style="fill-rule:evenodd;clip-rule:evenodd;" d="M95.657,131.236c-7.688,7.045-15.098,14.752-23.472,21.209
		c-6.353,4.898-13.526,9.402-21.054,11.969c-15.05,5.131-28.07-4.262-27.739-20.279c0.245-11.871,1.792-23.988,4.767-35.477
		c7.453-28.785,19.062-56.047,33.258-82.184c1.66-3.057,3.25-6.168,5.175-9.053c0.475-0.711,2.137-0.629,3.253-0.912
		c0.124,1.143,0.748,2.566,0.289,3.377c-2.375,4.197-5.249,8.119-7.547,12.354c-16.2,29.85-29.1,60.98-34.912,94.613
		c-1.252,7.246-1.301,15.018-0.178,22.279c1.696,10.969,9.323,15.326,20.143,12.809c10.906-2.537,19.351-9.469,27.651-16.367
		c5.614-4.666,10.502-10.195,15.859-15.184c2.142-1.994,2.218-3.836,1.543-6.619c-4.239-17.482-2.555-33.844,11.001-47.072
		c2.944-2.873,7.122-5.08,11.118-6.143c6.727-1.791,11.722,3.92,9.673,10.492c-4.873,15.631-13.439,29.316-23.249,42.195
		c-2.816,3.699-3.026,6.275,0.11,9.381c3.19,3.16,5.305,8.262,11.147,6.807c2.339-0.582,4.479-1.965,6.824-3.037
		c-1.138,6.012-7.777,8.73-12.794,4.975C102.576,138.416,99.248,134.636,95.657,131.236z M96.807,123.673
		c10.483-13.133,18.465-26.42,23.724-41.217c0.821-2.311,0.021-5.197-0.029-7.818c-2.856,0.209-5.79,0.096-8.541,0.75
		c-1.646,0.391-3.115,1.859-4.475,3.059c-7.307,6.451-11.398,14.721-12.369,24.27C94.444,109.335,93.466,116.175,96.807,123.673z"/>
	<path style="fill-rule:evenodd;clip-rule:evenodd;" d="M174.517,74.13c-13.016,6.686-21.022,17.988-28.965,29.275
		c-2.99,4.25-2.227,6.014,2.662,7.73c2.973,1.043,6.125,1.57,9.107,2.592c8.897,3.051,12.327,9.482,9.608,18.369
		c-2.211,7.229-6.535,13.133-12.831,17.305c-1.53,1.014-4.217,1.287-5.936,0.674c-1.263-0.449-1.815-2.896-2.684-4.455
		c0.402-0.301,0.804-0.602,1.207-0.902c1.147,0.906,2.295,1.813,3.776,2.982c7.28-5.229,11.896-12.268,13.618-21.055
		c0.875-4.467-1.203-7.842-5.62-9.342c-3.768-1.281-7.726-2.043-11.421-3.492c-7.42-2.91-9.076-7.412-4.16-13.393
		c7.271-8.848,15.106-17.252,23.044-25.516C167.954,72.791,171.112,69.568,174.517,74.13z"/>
	<path style="fill-rule:evenodd;clip-rule:evenodd;fill:#FFFFFF;" d="M277.262,96.847c1.938-10.158,3.813-20.361,11.437-28.32
		c1.104-1.152,2.625-2.15,4.135-2.588c1.073-0.311,2.846,0.068,3.582,0.836c0.668,0.695,0.911,2.674,0.396,3.5
		c-5.752,9.23-11.688,18.35-17.574,27.498C278.58,97.464,277.921,97.156,277.262,96.847z"/>
	<path style="fill-rule:evenodd;clip-rule:evenodd;fill:#FFFFFF;" d="M96.807,123.673c-3.34-7.498-2.362-14.338-1.689-20.957
		c0.971-9.549,5.062-17.818,12.369-24.27c1.359-1.199,2.829-2.668,4.475-3.059c2.751-0.654,5.685-0.541,8.541-0.75
		c0.05,2.621,0.85,5.508,0.029,7.818C115.272,97.253,107.29,110.541,96.807,123.673z"/>
</g>
</svg>
